<?xml version="1.0" encoding="UTF-8"?><svg id="Layer_1" xmlns="http://www.w3.org/2000/svg" viewBox="0 0 1950.9 1950.9"><defs><style>.cls-1{fill:#fff;}</style></defs><polygon class="cls-1" points="1948.99 0 1950.9 0 1950.9 1950.9 0 1950.9 0 1948.99 1949.01 1949.01 1948.99 0"/><polygon class="cls-1" points="1127.21 705.25 1004.82 702.3 915.27 575.35 895.22 702.7 787.45 706.79 804.46 595.13 835.03 402.73 953.42 402.59 1043.66 539.25 1065.17 402.69 1174.21 402.75 1127.21 705.25"/><path class="cls-1" d="M688.67,712.38l-148.25,12.8c-28.07,2.42-64.6,6.3-87.2-13.55-11.02-9.68-14.03-25.48-11.6-40.02l18.56-110.86,15.79-98.42c6.24-38.91,48.83-59.1,85.6-59.11l176.83-.06c12.76,0,26.3,3.86,37.07,8.96,21.73,10.29,28.25,32.52,24.34,54.78l-17.87,102-12.78,76.62c-2.1,12.6-5.64,25.66-14.02,35.41-16.65,19.35-40.11,29.2-66.48,31.48ZM657.82,651.43l30.58-177.33-102.81.35-22.01,130.95-8.86,50.75,103.09-4.72Z"/><polygon class="cls-1" points="1431.06 595.9 1282.61 596.1 1273.78 649.89 1462.57 649.5 1448.56 725.69 1156.91 705.41 1203.93 403.04 1504.35 403.01 1491.18 474.18 1303.43 474.23 1293.8 529.35 1442.41 529.57 1431.06 595.9"/><path class="cls-1" d="M745.81,1324.43l-37.94-60.36-20.87-32.74-21.57,2.22-.51,103.41-88.69,15.15-.06-310.11c27.62-2.88,54.36-5.06,82.38-6.34l108.44-4.95c14.52-.66,29.39,2.09,41.56,9.04,14.86,8.49,20.97,24.76,20.91,41.29l-.29,83.78c-.1,29.74-23.79,45.5-48.83,54.36l61.63,93.13-96.16,12.13ZM730.39,1165.71c6.91-.63,11.7-3.42,11.71-10.41l.07-56.98c-4.25-1.59-10.46-2.74-14.96-2.42l-62.21,4.49.76,71.22,64.63-5.91Z"/><path class="cls-1" d="M1371.88,1189.2c-.8,31.38-35.56,44.98-64.69,44.69l-100.6-1.03-.41,71.72-91.64-5.34.13-270.84,184.72,8.07c13.56.59,25.15,3.52,38.36,7.34,16,7.15,33.46,21.39,34.14,41.11,1.2,35.11.88,69.41,0,104.28ZM1282.58,1169.68l.19-62.3c.16-3.13-3.74-8.1-7.23-8.24l-69.05-2.6.02,78.01,65.08.04c4.32,0,8.36-1.24,10.98-4.91Z"/><path class="cls-1" d="M1057.51,1195.34l-41.08,1.21-65.08,1.44-.05,45.41,42.16-1.78,89.56-2.43.15,60.15c-73.66.84-143.85,4.9-217.68,10.65l.12-283.99,217.63.7.17,67-67.13-.47-64.61.38-.31,45.62,105.66-.09.51,56.2Z"/><polygon class="cls-1" points="617.15 854.11 616.07 963.61 557.8 968.85 557.9 764.68 622.56 757.95 673.83 840 708.57 780.88 727.22 748.45 792.8 745.52 792.59 953.38 729.66 956.1 729 842.16 681.85 923.12 663.06 922.76 617.15 854.11"/><path class="cls-1" d="M945.01,951.85l-84.76-.36c-24.67-.11-46.52-12.71-46.54-39.9l-.07-124.8c-.01-22.64,13.97-40.73,38.45-43.65,28.6-3.42,58.33-2.02,88.05-2.89,12.78-.37,25.11-.12,36.84,3.42,17.1,5.16,26.9,19.99,26.87,37.54l-.26,130.35c-.07,32.74-30.24,40.41-58.59,40.29ZM939.32,904.55l.03-117.1-60.33.24.02,117.92,60.29-1.06Z"/><path class="cls-1" d="M1179.6,956.28l-31.8-1.44-41.88-68.05c-2.63-2.92-12.98-2.58-15.46-.36l-.31,66.08-64.39-1.18.12-211.5,139.79,5.41c22.48.87,39.87,16.9,40.7,38.7l.02,65.01c0,20.17-12.58,34.14-35,36.41l45.13,71.06c-12.54,1.58-24.18.44-36.92-.14ZM1145.35,834.35l-.64-42.53-54.38-1.79.09,51.43,48.33,1.79c3.25.12,6.65-5.54,6.6-8.89Z"/><path class="cls-1" d="M1364.44,843.93c.98,14.5,1.05,27.89.37,43.05l-73.55-5.15-.37,33.53,92.43,7.02-.05,46.84-153.62-10.73.11-209.66c20.68.83,40.9,2.35,61.78,4.29l92.04,8.57.03,48.5-92.54-7.51-.49,34.95,73.84,6.3Z"/><path class="cls-1" d="M1060.91,1000.38c-158.36-4.31-370.16,2.7-525.46,20.28-6.14.69-9.05,1.34-9.91,8.23-.27,2.2-1.85,5.34-3.5,6.08-2.03.91-8.3-.83-8.5-3.18l-2.6-29.97,66.01-8.16c158.44-19.59,517.05-22.69,676.37-8.54l184.97,16.43-2.9,33.59c-3.13.24-9.06-.36-9.66-2.57l-3.03-11.14-75.27-7c-63.91-5.95-125.93-9.68-190.05-11.43l-96.47-2.63Z"/><path class="cls-1" d="M1257.43,1344.71c-99.35,3.54-196.22,15-293.79,33.59-73.65,14.68-144.29,33.34-214.96,58.36l-94.04-47.8c69.49-17.35,138.35-28.06,209.42-37.33,131.01-17.08,283.28-19.1,414.82-11.56,9.85.56,18.08,1.49,27.14,3.01l-48.58,1.73Z"/><path class="cls-1" d="M469.34,1171.32c-4.32-.31-8.29-7.78-8.99-12.01-5.05-30.38-11.84-58.77-14.98-89.65-6.86-67.39-10.29-133.97-6.87-201.58l2.9-57.34c.3-5.95,6.19-10.04,11.51-11,15.06-2.71,28.83-5.3,44.2-5.8-12.18,118.21-10.93,213.07,10.65,328.92l9.06,48.63c-16.3,1.17-29.72,1.1-47.48-.17ZM504.04,1158.01l-16.13-98.6-32.93,1.08c3.36,33.56,9.42,65,18.12,97.53h30.94Z"/><path class="cls-1" d="M1488.24,1158.25c-1.48,7.62-6.14,13.62-13.06,13.75-14.6.29-28.41.15-43.11-.73,11.71-60.99,22.29-119.56,25.74-181.41,3.7-66.24,1.63-129.58-5.83-196.73,16.38.72,33.51,3.54,48.76,7.35,2.79.7,6.4,7.5,6.62,10.52,5.11,70.26,4.87,138.62.13,209.09-3.17,47.13-10.21,91.43-19.27,138.16ZM1475.6,1157.1c7.93-32.08,14.2-63.21,17.46-96.86l-32.81-1.78-15.2,99.99c10.47.24,19.4-.28,30.55-1.35Z"/><path class="cls-1" d="M888.91,1490.33c-29.65-10.52-61.1-23.9-85.51-35.39,63.83-24.89,125.64-44.42,191.19-58.55,74.62-16.09,148.49-28.44,223.7-28.94-116.53,25.01-226.39,64.42-329.38,122.89Z"/><path class="cls-1" d="M1508.04,1140.8l-.25-7.12c-.17-4.87,25.93-1.75,33.64-5.16l12.2-73.92c.38-2.32-1.3-8.39-2.51-9.03l-30.68-2.88,2.03-39.71c3.03-59.39,3.98-116.94.18-176.48,14.61,1.37,28.81,3.43,42.24,6.95,3.69.97,5.14,10.01,5.26,13.34,3.45,96.15-.2,192.57-20.24,286.45-.66,3.08-6.84,6.6-9.91,6.69l-31.95.86Z"/><path class="cls-1" d="M435.81,1131.3c3.86.19,6.83,6.31,4.44,9.48l-33.21-.84c-4.35-.11-8.78-4.7-9.48-9.07-4.71-29.25-9.84-56.36-12.79-86.13-6.76-68.18-7.6-134.81-5.47-203.06.15-4.81,4.5-9.54,8.67-10.1l37.54-4.97c-3.53,55.61-3.65,109.49-.87,165l2.26,45.06-32.89,4.89c2.58,30.74,7.09,58.18,13.91,88.38l27.9,1.38Z"/><path class="cls-1" d="M370.33,1098.66l6.5.79c1.48.18,1.05,4.63.77,6.67-9.33-.08-18.94-.76-29.71-2.47-15.07-70.91-19.04-148.4-15.91-220.98,11.2-3.05,20.59-4.5,32.8-5.4-1.86,54.89-.55,108.19,4.66,163l-22.38,3.37,7.85,53.15,15.42,1.88Z"/><path class="cls-1" d="M1600.1,1103.49c-4.05,2.18-40.15,3.91-29.51-2.61,9.25-5.68,16.17-1.06,23.57-7.09l7.76-50.05-22.49-4.09c5.27-55.55,7-107.09,4.12-162.45,11.74.44,22.2,1.96,33.29,5.28,3.29,57.82-1.16,113.74-7.61,170.73-2,17.63-4.75,32.38-9.13,50.29Z"/><path class="cls-1" d="M1653.29,1021.94l-28.69.4,5-76.06,27.35,3.02c.7,25.2-.61,46.8-3.66,72.64Z"/><path class="cls-1" d="M295.71,1022c-2.68-24-5.09-50.39-3.38-72.69l28.01-2.24,3.71,75.37-28.34-.44Z"/><path class="cls-1" d="M541.76,962.38c1.58,8.8-2.63,17.3-8.17,21.44-5.97,4.46-15.65,5.04-22.79.9-1.24-15.14-1.64-30.38-1.23-46.35,16.1-.54,29.32,8.02,32.2,24.01Z"/><path class="cls-1" d="M1437.03,982.66c-1.46,6.43-16.59,5.51-20.85,1.39-8.69-8.41-10.56-21.03-4.63-31.73,4.87-8.79,16.66-14.69,27.91-13.22.14,15.47.92,28.77-2.43,43.56Z"/></svg>